<?xml version="1.0" encoding="UTF-8"?><svg id="Laag_1" xmlns="http://www.w3.org/2000/svg" viewBox="0 0 44 44"><defs><style>.cls-1{fill:#fff;stroke-width:0px;}</style></defs><path class="cls-1" d="M34.33,30.57c2.62-3.22,4.18-7.29,4.18-11.73,0-5.2-2.16-9.92-5.65-13.31C29.37,2.12,24.57,0,19.25,0S9.11,2.12,5.65,5.53C2.16,8.94,0,13.64,0,18.84s2.16,9.92,5.65,13.31c3.49,3.41,8.29,5.53,13.61,5.53,4.06,0,7.86-1.25,10.96-3.36l5.82,5.69,3.97-3.88-5.67-5.55ZM29.78,29.16c-2.69,2.63-6.42,4.26-10.53,4.26s-7.84-1.62-10.53-4.26c-2.69-2.63-4.35-6.28-4.35-10.3s1.66-7.67,4.35-10.3c2.69-2.63,6.42-4.26,10.53-4.26s7.84,1.62,10.53,4.26c2.69,2.63,4.35,6.28,4.35,10.3s-1.66,7.67-4.35,10.3Z"/><path class="cls-1" d="M12.02,18.39l-.46-.07c-1.15-.16-1.59-.56-1.59-1.13s.48-1.13,1.35-1.13,1.37.21,2.07.66c.07.05.12.02.17-.05l.6-.92c.05-.07.05-.12-.02-.16-.67-.52-1.71-.85-2.79-.85-1.78,0-2.91,1.01-2.91,2.54s.94,2.19,2.6,2.4l.46.07c1.18.16,1.56.56,1.56,1.15s-.6,1.22-1.61,1.22-1.78-.45-2.33-.89c-.05-.05-.12-.05-.17,0l-.79.89c-.05.07-.02.14.02.19.67.61,1.9,1.11,3.15,1.11,2.14,0,3.25-1.11,3.25-2.61s-.91-2.21-2.57-2.45l.02.02Z"/><path class="cls-1" d="M21.56,14.89h-5.38c-.07,0-.12.05-.12.12v8.16c0,.07.05.12.12.12h5.38c.07,0,.12-.05.12-.12v-1.06c0-.07-.05-.12-.12-.12h-3.94l-.07-.07v-2.12l.07-.07h3.32c.07,0,.12-.05.12-.12v-1.06c0-.07-.05-.12-.12-.12h-3.32l-.07-.07v-2.05l.07-.07h3.94c.07,0,.12-.05.12-.12v-1.06c0-.07-.05-.12-.12-.12v-.07Z"/><path class="cls-1" d="M26.27,14.74c-1.49,0-2.6.68-3.03,2.02-.17.52-.22.99-.22,2.3s.05,1.79.22,2.3c.43,1.34,1.56,2.02,3.03,2.02s2.6-.68,3.05-2.02c.17-.52.22-.99.22-2.3s-.05-1.79-.22-2.3c-.43-1.34-1.56-2.02-3.05-2.02ZM27.88,21.02c-.24.68-.75,1.11-1.61,1.11s-1.35-.42-1.59-1.11c-.1-.31-.14-.75-.14-1.93s.05-1.62.14-1.93c.24-.68.75-1.11,1.59-1.11s1.37.42,1.61,1.11c.1.31.14.73.14,1.93s-.05,1.62-.14,1.93Z"/></svg>
