<?xml version="1.0" encoding="UTF-8"?><svg id="Laag_1" xmlns="http://www.w3.org/2000/svg" viewBox="0 0 26 26"><defs><style>.cls-1{fill:#010101;stroke-width:0px;}</style></defs><path class="cls-1" d="M20.17,18.69c1.31-1.61,2.09-3.64,2.09-5.87s-1.08-4.96-2.82-6.65c-1.74-1.7-4.15-2.76-6.8-2.76s-5.07,1.06-6.8,2.76c-1.74,1.7-2.82,4.06-2.82,6.65s1.08,4.96,2.82,6.65c1.74,1.7,4.15,2.76,6.8,2.76s3.93-.62,5.48-1.68l2.91,2.85,1.98-1.94-2.84-2.77ZM17.9,17.99c-1.35,1.32-3.21,2.13-5.26,2.13s-3.92-.81-5.26-2.13c-1.35-1.32-2.18-3.14-2.18-5.15s.83-3.83,2.18-5.15c1.35-1.32,3.21-2.13,5.26-2.13s3.92.81,5.26,2.13c1.35,1.32,2.18,3.14,2.18,5.15s-.83,3.83-2.18,5.15Z"/><path class="cls-1" d="M9.02,12.6l-.23-.04c-.58-.08-.79-.28-.79-.56s.24-.56.67-.56.69.11,1.03.33c.04.02.06,0,.08-.02l.3-.46s.02-.06,0-.08c-.34-.26-.85-.42-1.39-.42-.89,0-1.45.51-1.45,1.27s.47,1.09,1.3,1.2l.23.04c.59.08.78.28.78.58s-.3.61-.81.61-.89-.22-1.17-.45c-.02-.02-.06-.02-.08,0l-.4.45s0,.07,0,.09c.34.31.95.55,1.57.55,1.07,0,1.62-.55,1.62-1.31s-.46-1.11-1.29-1.22h.01Z"/><path class="cls-1" d="M13.79,10.85h-2.69s-.06.02-.06.06v4.08s.02.06.06.06h2.69s.06-.02.06-.06v-.53s-.02-.06-.06-.06h-1.97l-.04-.04v-1.06l.04-.04h1.66s.06-.02.06-.06v-.53s-.02-.06-.06-.06h-1.66l-.04-.04v-1.02l.04-.04h1.97s.06-.02.06-.06v-.53s-.02-.06-.06-.06c0,0,0-.04,0-.04Z"/><path class="cls-1" d="M16.14,10.78c-.75,0-1.3.34-1.51,1.01-.08.26-.11.49-.11,1.15s.02.89.11,1.15c.22.67.78,1.01,1.51,1.01s1.3-.34,1.53-1.01c.08-.26.11-.49.11-1.15s-.02-.89-.11-1.15c-.22-.67-.78-1.01-1.53-1.01ZM16.95,13.92c-.12.34-.37.55-.81.55s-.67-.21-.79-.55c-.05-.15-.07-.38-.07-.96s.02-.81.07-.96c.12-.34.37-.55.79-.55s.69.21.81.55c.05.15.07.36.07.96s-.02.81-.07.96Z"/></svg>