<?xml version="1.0" encoding="UTF-8"?><svg id="Laag_1" xmlns="http://www.w3.org/2000/svg" viewBox="0 0 26 26"><defs><style>.cls-1{fill:#000;}.cls-1,.cls-2{stroke-width:0px;}.cls-2{fill:#010101;}</style></defs><path class="cls-2" d="M20.16,18.29c1.31-1.61,2.09-3.64,2.09-5.87s-1.08-4.96-2.82-6.65c-1.74-1.7-4.15-2.76-6.8-2.76s-5.07,1.06-6.8,2.76c-1.74,1.7-2.82,4.06-2.82,6.65s1.08,4.96,2.82,6.65c1.74,1.7,4.15,2.76,6.8,2.76s3.93-.62,5.48-1.68l2.91,2.85,1.98-1.94-2.84-2.77ZM17.89,17.58c-1.35,1.32-3.21,2.13-5.26,2.13s-3.92-.81-5.26-2.13c-1.35-1.32-2.18-3.14-2.18-5.15s.83-3.83,2.18-5.15c1.35-1.32,3.21-2.13,5.26-2.13s3.92.81,5.26,2.13c1.35,1.32,2.18,3.14,2.18,5.15s-.83,3.83-2.18,5.15Z"/><path class="cls-1" d="M9.6,12.91l.68-.67,1.7,1.66,3.76-3.68.68.67-4.43,4.34-2.37-2.32h-.02Z"/></svg>