<?xml version="1.0" encoding="UTF-8"?><svg id="Laag_1" xmlns="http://www.w3.org/2000/svg" viewBox="0 0 26 26"><defs><style>.cls-1{fill:#010101;fill-rule:evenodd;stroke-width:0px;}</style></defs><g id="Page-1"><g id="Dribbble-Light-Preview"><g id="icons"><path id="script-" class="cls-1" d="M10.04,12.95h6v-2h-6v2ZM10.04,8.95h6v-2h-6v2ZM19.05,6.95v-2c1.11,0,2,.89,2,2h-2ZM17.04,18.96c0,1.11-.89,2-2,2v-4h-6V6.96c0-1.11.89-2,2-2h6v14.01h0ZM13.04,20.96h-6c-1.11,0-2-.89-2-2h8v2ZM19.05,2.95h-8c-2.21,0-4,1.79-4,4v10H3.05v2c0,2.21,1.79,4,4,4h8c2.21,0,4-1.79,4-4v-10h4v-2c0-2.21-1.79-4-4-4h0Z"/></g></g></g></svg>