<?xml version="1.0" encoding="UTF-8"?><svg id="Laag_1" xmlns="http://www.w3.org/2000/svg" viewBox="0 0 26 26"><defs><style>.cls-1,.cls-2{fill:#010101;stroke-width:0px;}.cls-2{fill-rule:evenodd;}</style></defs><path class="cls-1" d="M20.11,18.19c1.31-1.61,2.09-3.64,2.09-5.87,0-2.6-1.08-4.96-2.82-6.65-1.74-1.7-4.15-2.76-6.8-2.76s-5.07,1.06-6.8,2.76c-1.74,1.7-2.82,4.06-2.82,6.65s1.08,4.96,2.82,6.65c1.74,1.7,4.15,2.76,6.8,2.76,2.03,0,3.93-.62,5.48-1.68l2.91,2.85,1.98-1.94-2.84-2.77ZM17.84,17.48c-1.35,1.32-3.21,2.13-5.26,2.13s-3.92-.81-5.26-2.13c-1.35-1.32-2.18-3.14-2.18-5.15s.83-3.83,2.18-5.15c1.35-1.32,3.21-2.13,5.26-2.13s3.92.81,5.26,2.13c1.35,1.32,2.18,3.14,2.18,5.15s-.83,3.83-2.18,5.15Z"/><g id="Page-1"><g id="Dribbble-Light-Preview"><g id="icons"><path id="url-" class="cls-2" d="M9.69,9.64c.67-.63,1.78-.63,2.45,0l.61.58.61-.58-.61-.58c-1.01-.94-2.66-.94-3.68,0s-1.01,2.48,0,3.42l.61.58.61-.58-.61-.58c-.67-.63-.67-1.66,0-2.28h0ZM16.08,12.17l-.61-.58-.61.58.61.58c.67.63.67,1.66,0,2.28-.67.63-1.78.63-2.45,0l-.61-.58-.61.58.61.58c1.01.94,2.66.94,3.68,0,1.01-.94,1.01-2.48,0-3.42h0ZM10.62,9.92l4.54,4.23-.61.58-4.54-4.23s.61-.58.61-.58Z"/></g></g></g></svg>