<?xml version="1.0" encoding="UTF-8"?><svg id="Laag_1" xmlns="http://www.w3.org/2000/svg" viewBox="0 0 26 26"><defs><style>.cls-1{fill:#010101;stroke-width:0px;}</style></defs><path class="cls-1" d="M20.11,18.19c1.31-1.61,2.09-3.64,2.09-5.87,0-2.6-1.08-4.96-2.82-6.65-1.74-1.7-4.15-2.76-6.8-2.76s-5.07,1.06-6.8,2.76c-1.74,1.7-2.82,4.06-2.82,6.65s1.08,4.96,2.82,6.65c1.74,1.7,4.15,2.76,6.8,2.76,2.03,0,3.93-.62,5.48-1.68l2.91,2.85,1.98-1.94-2.84-2.77ZM17.84,17.48c-1.35,1.32-3.21,2.13-5.26,2.13s-3.92-.81-5.26-2.13c-1.35-1.32-2.18-3.14-2.18-5.15s.83-3.83,2.18-5.15c1.35-1.32,3.21-2.13,5.26-2.13s3.92.81,5.26,2.13c1.35,1.32,2.18,3.14,2.18,5.15s-.83,3.83-2.18,5.15Z"/><path class="cls-1" d="M13.12,16.49v-3.8h1.31l.19-1.48h-1.5v-.94c0-.42.12-.72.75-.72h.79v-1.33c-.38-.04-.78-.06-1.17-.06-1.15,0-1.95.69-1.95,1.96v1.09h-1.3v1.48h1.3v3.8h1.57Z"/></svg>